<?xml version="1.0" encoding="UTF-8"?>
<svg id="uuid-b03535fb-6951-4fc3-965b-e48e21acb6e8" data-name="Capa 2" xmlns="http://www.w3.org/2000/svg" width="783.8" height="487.44" xmlns:xlink="http://www.w3.org/1999/xlink" viewBox="0 0 783.8 487.44">
  <defs>
    <linearGradient id="uuid-c954873f-1ffa-41f2-b784-2fb620c2da9b" x1="5.24" y1="443.27" x2="367.64" y2="157.18" gradientUnits="userSpaceOnUse">
      <stop offset="0" stop-color="#ff4000"/>
      <stop offset=".2" stop-color="#ff5c00"/>
      <stop offset=".56" stop-color="#f80"/>
      <stop offset=".84" stop-color="#ffa300"/>
      <stop offset="1" stop-color="#ffae00"/>
    </linearGradient>
    <linearGradient id="uuid-ad0a900e-2ace-4520-884d-5e80db6d4606" x1="562.78" y1="2.03" x2="776.75" y2="420.36" gradientUnits="userSpaceOnUse">
      <stop offset="0" stop-color="#13cf96"/>
      <stop offset=".28" stop-color="#10c891"/>
      <stop offset=".66" stop-color="#0ab783"/>
      <stop offset="1" stop-color="#02a373"/>
    </linearGradient>
    <linearGradient id="uuid-ffb6dd9b-f4bc-4405-8c03-2ea7d9188ca7" x1="177.82" y1="471.34" x2="597.64" y2="215.8" gradientUnits="userSpaceOnUse">
      <stop offset="0" stop-color="#fa0"/>
      <stop offset="1" stop-color="#ffe95c"/>
    </linearGradient>
    <linearGradient id="uuid-e57e9c6e-11c4-4f9c-81e4-47b574f9ab69" x1="338.34" y1="512.56" x2="528.87" y2="369.66" gradientUnits="userSpaceOnUse">
      <stop offset="0" stop-color="#0788de"/>
      <stop offset=".41" stop-color="#0395ed"/>
      <stop offset="1" stop-color="#00a6ff"/>
    </linearGradient>
    <filter id="uuid-b3725320-bafd-4cb0-bb9e-cc74fb1251b5" data-name="drop-shadow-1" filterUnits="userSpaceOnUse">
      <feOffset dx="0" dy="-4"/>
      <feGaussianBlur result="uuid-57f3fe42-2e60-4e4d-9898-2bd91c4dfa1d" stdDeviation="2"/>
      <feFlood flood-color="#000" flood-opacity=".25"/>
      <feComposite in2="uuid-57f3fe42-2e60-4e4d-9898-2bd91c4dfa1d" operator="in"/>
      <feComposite in="SourceGraphic"/>
    </filter>
    <linearGradient id="uuid-d155321c-a521-4c3e-a291-f4a6491e2d51" data-name="Degradado sin nombre 9" x1="329.79" y1="353.39" x2="384.08" y2="163.24" gradientUnits="userSpaceOnUse">
      <stop offset="0" stop-color="#faf8ed"/>
      <stop offset=".99" stop-color="#fff"/>
    </linearGradient>
    <filter id="uuid-1542f72e-7152-4f2b-9895-e3f262e236e2" data-name="drop-shadow-2" filterUnits="userSpaceOnUse">
      <feOffset dx="4" dy="4"/>
      <feGaussianBlur result="uuid-fb794147-2a41-4b5e-97d7-d7150a4545cf" stdDeviation="3"/>
      <feFlood flood-color="#000" flood-opacity=".75"/>
      <feComposite in2="uuid-fb794147-2a41-4b5e-97d7-d7150a4545cf" operator="in"/>
      <feComposite in="SourceGraphic"/>
    </filter>
  </defs>
  <g id="uuid-040cf467-0080-49f7-b486-a52aef6c0942" data-name="Layer 7">
    <g>
      <path d="M158.19,444.99c-11.29,16.84,.79,39.47,21.06,39.47H16.71c-13.34,0-21.29-14.83-13.86-25.88L276.4,51.94c8.26-12.29,26.38-12.29,34.65,0l55.41,82.36-8.46,12.63L158.19,444.99Z" style="fill: url(#uuid-c954873f-1ffa-41f2-b784-2fb620c2da9b);"/>
      <path d="M783.8,305.67c-3.42,34.07-14.52,65.64-33.03,93.04L536.25,78.64l33.23-50.82c7.7-11.79,24.99-11.79,32.69,0l181.63,277.86Z" style="fill: url(#uuid-ad0a900e-2ace-4520-884d-5e80db6d4606);"/>
      <path d="M750.76,398.7h0c-.12,.22-.27,.41-.41,.62-3.61,5.33-7.51,10.48-11.68,15.47-.77,.91-1.52,1.81-2.31,2.71-.22,.26-.43,.51-.66,.76-.56,.64-1.14,1.29-1.72,1.93-.28,.31-.55,.63-.84,.93-.77,.85-1.56,1.7-2.35,2.55-.87,.91-1.73,1.82-2.62,2.72-.05,.06-.1,.11-.15,.15-.45,.47-.93,.94-1.39,1.41-.47,.48-.96,.95-1.43,1.41-.95,.93-1.92,1.87-2.89,2.79-.98,.91-1.97,1.82-2.96,2.73-.99,.9-2.01,1.81-3.02,2.7-36.76,31.98-68.39,42.6-114.96,46.1-4.35,.33-8.82,.58-13.44,.8H179.25c-20.28,0-32.36-22.63-21.07-39.47L358,146.92l8.46-12.62L448.95,11.24c10.05-14.98,32.08-14.98,42.12,0l45.17,67.4,214.52,320.06Z" style="fill: url(#uuid-ffb6dd9b-f4bc-4405-8c03-2ea7d9188ca7);"/>
      <path d="M601.37,483.66c-4.35,.33-8.82,.58-13.44,.8H292l133.99-204.28c9.01-13.74,29.17-13.86,38.35-.22l137.03,203.7Z" style="fill: url(#uuid-e57e9c6e-11c4-4f9c-81e4-47b574f9ab69); filter: url(#uuid-b3725320-bafd-4cb0-bb9e-cc74fb1251b5);"/>
      <path d="M518.25,272.15c0,45.11-37.03,81.67-82.71,81.67h-90.89c-19.63,0-79.68-.11-95.4-.11-36.81,0-66.65-29.46-66.65-65.81,0-33.23,24.94-60.7,57.35-65.17,10.8-47.85,53.58-83.59,104.7-83.59,38.76,0,72.73,20.55,91.59,51.34,45.36,.37,82.01,36.79,82.01,81.67Z" style="fill: url(#uuid-d155321c-a521-4c3e-a291-f4a6491e2d51); filter: url(#uuid-1542f72e-7152-4f2b-9895-e3f262e236e2);"/>
    </g>
  </g>
</svg>
